HIERARCHY
ROOT ui
{
	 OFFSET 0 0 0
	 CHANNELS 3 XPosition YPosition Z Position
	 EndSite
	 {
	 OFFSET 0 -1 0
	 }
}
ROOT li
{
	 OFFSET 0 0 0
	 CHANNELS 3 XPosition YPosition Z Position
	 EndSite
	 {
	 OFFSET 0 -1 0
	 }
}
ROOT ul
{
	 OFFSET 0 0 0
	 CHANNELS 3 XPosition YPosition Z Position
	 EndSite
	 {
	 OFFSET 0 -1 0
	 }
}
ROOT ll
{
	 OFFSET 0 0 0
	 CHANNELS 3 XPosition YPosition Z Position
	 EndSite
	 {
	 OFFSET 0 -1 0
	 }
}
ROOT tt
{
	 OFFSET 0 0 0
	 CHANNELS 3 XPosition YPosition Z Position
	 EndSite
	 {
	 OFFSET 0 -1 0
	 }
}
ROOT tb
{
	 OFFSET 0 0 0
	 CHANNELS 3 XPosition YPosition Z Position
	 EndSite
	 {
	 OFFSET 0 -1 0
	 }
}
ROOT td
{
	 OFFSET 0 0 0
	 CHANNELS 3 XPosition YPosition Z Position
	 EndSite
	 {
	 OFFSET 0 -1 0
	 }
}
ROOT v
{
	 OFFSET 0 0 0
	 CHANNELS 3 XPosition YPosition Z Position
	 EndSite
	 {
	 OFFSET 0 -1 0
	 }
}
ROOT bn
{
	 OFFSET 0 0 0
	 CHANNELS 3 XPosition YPosition Z Position
	 EndSite
	 {
	 OFFSET 0 -1 0
	 }
}
MOTION
Frames: 26
Frame Time: 0.002
1.5977099537849425E-4	-0.001226770043373108	0		0.3788788452148438	-2.355235595703125	0		-1.07066552734375	-0.02640806007385254	0		-0.8778336791992187	-2.373279296875	0		1.1501676025390626	-0.597961181640625	0		2.77665185546875	-0.010003505706787109	0		4.37843896484375	0.1423958282470703	0		5.59382373046875	0.011322119712829589	0		-0.06216482925415039	5.96263623046875	0		
-0.004728178977966308	0.0036075420379638673	0		0.3790906066894531	-2.355476806640625	0		-1.07755078125	-0.021625751495361327	0		-0.890484130859375	-2.367346923828125	0		1.155087158203125	-0.6042423095703126	0		2.74268310546875	-0.00827584457397461	0		4.3674287109375	0.14275816345214845	0		5.5748271484375	0.011971046447753906	0		-0.047461193084716795	5.97302001953125	0		
-0.004734296798706055	0.0033276970386505126	0		0.3813409423828125	-2.3537666015625	0		-1.0706666259765625	-0.027155637741088867	0		-0.8882327270507813	-2.365751220703125	0		1.1551358642578125	-0.6044175415039063	0		2.734459228515625	-0.018128868103027343	0		4.37840771484375	0.14262994384765626	0		5.5748203125	0.012194512367248535	0		-0.1947205810546875	5.941966796875	0		
0.004228650093078613	0.0018518979549407958	0		0.35918988037109373	-2.3695234375	0		-1.06658984375	-0.023616888046264647	0		-0.8731279296875	-2.370436279296875	0		1.1582418212890624	-0.6016599731445312	0		2.749246826171875	-0.027492679595947266	0		4.36536328125	0.14202487182617188	0		5.5789814453125	0.020319257736206055	0		-0.04759013748168945	5.97043310546875	0		
-6.808609962463378E-4	0.006689395904541016	0		0.3848243103027344	-2.34931640625	0		-1.06660791015625	-0.02397834396362305	0		-0.872947265625	-2.370781494140625	0		1.161359619140625	-0.597899658203125	0		2.77661669921875	-0.010126534461975098	0		4.3756357421875	0.15590104675292968	0		5.5831337890625	0.028431018829345702	0		-0.17958792114257813	5.95003173828125	0		
-7.094510197639465E-4	0.006428925991058349	0		0.38291842651367186	-2.352501953125	0		-1.0707203369140625	-0.02823552131652832	0		-0.81582177734375	-2.373354736328125	0		1.1552279052734375	-0.6049349975585937	0		2.7174072265625	-0.017876424789428712	0		4.3824404296875	0.14883819580078125	0		5.57475634765625	0.012793755531311036	0		-0.06481196594238281	5.96124462890625	0		
5.7397998869419096E-5	-0.002837515115737915	0		0.3799686279296875	-2.356654296875	0		-1.0707550048828125	-0.02856112289428711	0		-0.8787776489257813	-2.37729052734375	0		1.1552357177734376	-0.6050967407226563	0		2.73436767578125	-0.01829276466369629	0		4.37826318359375	0.14300245666503905	0		5.57471875	0.012957406997680663	0		-0.06528760528564453	5.9609931640625	0		
-0.004878874778747559	0.0020385730266571046	0		0.3821226501464844	-2.35490380859375	0		-1.0707991943359374	-0.028863655090332032	0		-0.8427385864257813	-2.38135986328125	0		1.15522998046875	-0.6052507934570313	0		2.734322998046875	-0.018341527938842774	0		4.36721044921875	0.1433017578125	0		5.574671875	0.013098071098327637	0		-0.19719894409179686	5.9406025390625	0		
-0.004934403896331787	0.0018244279623031616	0		0.38324951171875	-2.3531171875	0		-1.1417281494140625	-0.02260720443725586	0		-0.9124638671875	-2.3721123046875	0		1.1582745361328124	-0.6024618530273438	0		2.7633916015625	-0.013021958351135255	0		4.371275390625	0.14925833129882812	0		5.57878759765625	0.02112558937072754	0		-0.18239303588867187	5.95005029296875	0		
0.007041580200195312	0.0033696610927581787	0		0.38330657958984377	-2.353292724609375	0		-1.066830322265625	-0.025478513717651367	0		-0.83850927734375	-2.377949462890625	0		1.1582413330078125	-0.602597412109375	0		2.738312255859375	-0.013535361289978027	0		4.375353515625	0.15620057678222657	0		5.58772021484375	0.021023900985717773	0		-0.05127699661254883	5.97101513671875	0		
-0.005071005821228027	0.001452867031097412	0		0.3822962341308594	-2.355429443359375	0		-1.1459476318359374	-0.02700090789794922	0		-0.8784879760742188	-2.378301513671875	0		1.1581959228515626	-0.6027217407226563	0		2.76325634765625	-0.013127705574035645	0		4.37112451171875	0.14930697631835937	0		5.57864892578125	0.02129017448425293	0		-0.050657894134521486	5.96881591796875	0		
-0.0010651329755783081	0.005209641933441162	0		0.3802637634277344	-2.35752783203125	0		-1.071064453125	-0.029811458587646486	0		-0.81949072265625	-2.37975830078125	0		1.153011962890625	-0.6087252807617187	0		2.738162109375	-0.013642006874084473	0		4.37103955078125	0.14931620788574218	0		5.59339404296875	0.013024701118469238	0		-0.06715249633789062	5.96000390625	0		
-3.433949947357178E-4	-0.0039467370510101315	0		0.380253173828125	-2.35765283203125	0		-1.146109619140625	-0.027373485565185547	0		-0.8805294799804687	-2.380612060546875	0		1.15501025390625	-0.6058695678710937	0		2.72912255859375	-0.011500184059143066	0		4.366822265625	0.1434040069580078	0		5.57431298828125	0.013471367835998536	0		-0.18465538024902345	5.95037744140625	0		
-0.0012392159700393677	0.004953964233398438	0		0.4117667541503906	-2.379442626953125	0		-1.06126025390625	-0.03134201622009277	0		-0.8744308471679687	-2.374883056640625	0		1.1580001220703124	-0.6030238647460937	0		2.7397314453125	-0.025782012939453126	0		4.35988134765625	0.15054461669921876	0		5.57839404296875	0.02140671730041504	0		-0.18293878173828124	5.94821142578125	0		
0.003561073064804077	-2.5346300005912783E-4	0		0.3853285827636719	-2.35096435546875	0		-1.1381407470703124	-0.02081859016418457	0		-0.8744746704101563	-2.375002197265625	0		1.1579208984375	-0.6031021728515625	0		2.7701259765625	-0.0034760549068450926	0		4.36391455078125	0.15644351196289064	0		5.58247265625	0.029329591751098633	0		-0.05070878601074219	5.96727587890625	0		
-0.005507599830627441	8.530150055885315E-4	0		0.3821675109863281	-2.355978759765625	0		-1.0714190673828126	-0.030353851318359375	0		-0.8447284545898438	-2.384741455078125	0		1.1547747802734376	-0.606104736328125	0		2.733699951171875	-0.01874422073364258	0		4.3658408203125	0.15738392639160156	0		5.5782099609375	0.021419755935668944	0		-0.06806288909912109	5.9595546875	0		
-0.00559849214553833	7.809659838676452E-4	0		0.3800646667480469	-2.358002685546875	0		-1.071509521484375	-0.03043962478637695	0		-0.8807162475585938	-2.381055419921875	0		1.1546917724609376	-0.606161865234375	0		2.728760009765625	-0.011675713539123535	0		4.35475048828125	0.1576033172607422	0		5.57394873046875	0.013506937980651855	0		-0.08148406219482422	5.94776220703125	0		
-7.934970259666443E-4	-0.004384772777557373	0		0.37793939208984373	-2.36101513671875	0		-1.075659423828125	-0.03342499542236328	0		-0.8828199462890625	-2.383081787109375	0		1.1546112060546876	-0.6062094116210938	0		2.767493408203125	-0.020537794113159178	0		4.36635986328125	0.14333700561523438	0		5.573861328125	0.013506970405578612	0		-0.06742465209960938	5.95739990234375	0		
-0.0016806659698486329	0.004584719181060791	0		0.3845384216308594	-2.377207275390625	0		-1.067591064453125	-0.026657283782958983	0		-0.8808350830078125	-2.381182861328125	0		1.1576005859375	-0.603313232421875	0		2.762564453125	-0.013456613540649413	0		4.35943017578125	0.15047581481933595	0		5.57795166015625	0.02142186164855957	0		-0.18476808166503905	5.94885107421875	0		
0.02322372055053711	0.0030097880363464356	0		0.38298165893554686	-2.3542080078125	0		-1.0676593017578124	-0.02670780372619629	0		-0.878841064453125	-2.379275146484375	0		1.1575372314453125	-0.6033447875976562	0		2.767345458984375	-0.020579639434814452	0		4.36550830078125	0.15734185791015626	0		5.5778828125	0.021427982330322264	0		-0.05244771957397461	5.96798486328125	0		
0.003088037014007568	-5.974760055541992E-4	0		0.381904296875	-2.356218017578125	0		-1.0717984619140626	-0.03066575241088867	0		-0.847032470703125	-2.3869990234375	0		1.1544241943359375	-0.6063054809570313	0		2.732576171875	-0.006847430229187012	0		4.36343115234375	0.15638655090332032	0		5.577828125	0.021440036773681642	0		-0.06778443908691406	5.95727197265625	0		
-0.001037237048149109	-0.004542689800262451	0		0.3777790222167969	-2.36115966796875	0		-1.075902099609375	-0.03362093353271484	0		-0.8829794921875	-2.38327099609375	0		1.1543887939453126	-0.6063264770507812	0		2.77135595703125	-0.015684258460998534	0		4.36128271484375	0.15143840026855468	0		5.5736171875	0.013546234130859374	0		-0.0678792724609375	5.95723974609375	0		
-0.0059575772285461424	5.325310230255127E-4	0		0.35288671875	-2.355654052734375	0		-1.1409364013671874	-0.03327577590942383	0		-0.88298388671875	-2.383309814453125	0		1.15436669921875	-0.60634521484375	0		2.73250732421875	-0.006857151985168457	0		4.35923193359375	0.1504945068359375	0		5.57775830078125	0.021484453201293944	0		-0.06796678161621093	5.957208984375	0		
0.003002284049987793	-6.90172016620636E-4	0		0.4201982116699219	-2.389123291015625	0		-1.1368897705078125	-0.030405202865600587	0		-0.9070545043945313	-2.386838134765625	0		1.1574197998046876	-0.6034282836914062	0		2.742190185546875	-0.021068374633789064	0		4.3640419921875	0.14240620422363282	0		5.58352685546875	0.011388566970825196	0		-0.18332070922851562	5.945630859375	0		
0.0060589852333068845	0.0022115659713745116	0		0.41345571899414063	-2.37800537109375	0		-1.0619129638671876	-0.03204971694946289	0		-0.84294091796875	-2.383246826171875	0		1.1605048828125	-0.59951318359375	0		2.77779345703125	0.007178153038024902	0		4.36333251953125	0.15644198608398438	0		5.581904296875	0.029459096908569335	0		-0.050937301635742185	5.9657783203125	0		
-0.0018942569494247437	0.004343186855316162	0		0.38194244384765624	-2.356362060546875	0		-1.0718865966796876	-0.030888809204101562	0		-0.8829205932617188	-2.383444091796875	0		1.1543671875	-0.6064075317382812	0		2.737336669921875	-0.01396855640411377	0		4.365353515625	0.15741610717773438	0		5.5735673828125	0.013665355682373048	0		-0.0672196273803711	5.95608203125	0		
